<svg xmlns="http://www.w3.org/2000/svg" version="1.1" xmlns:xlink="http://www.w3.org/1999/xlink" width="2000" height="2052" viewBox="0 0 2000 2052"><svg xml:space="preserve" width="2000" height="2052" data-version="2" data-id="lg_R1de3On4Dp38X3niuC" viewBox="0 0 540 554" x="0" y="0">
    <path fill="#FFACAC" d="M5.475 516.965v-98.35h66.73q11.4 0 19.84 3.12 8.43 3.12 13.15 9.73 4.71 6.61 4.71 16.95 0 6.99-2.43 11.85-2.44 4.87-6.77 7.91t-9.95 4.63q-5.63 1.6-12.01 2.05l-2.13-1.21q10.64.15 17.48 1.75 6.84 1.59 10.26 5.77t3.42 12.39v23.41h-20.22v-22.04q0-5.63-1.97-8.74-1.98-3.12-7.07-4.33-5.09-1.22-14.67-1.22h-38.15v36.33Zm20.22-52.14h46.51q8.51 0 13-4.1 4.48-4.11 4.48-11.1 0-6.69-4.48-10.18-4.49-3.5-13-3.5h-46.51Z"></path>
    <rect width="104.43" height="98.35" x="-52.215" y="-49.175" fill="none" rx="0" ry="0" transform="matrix(1 0 0 1 58.19 468.29)"></rect>
    <path fill="#FFACAC" d="M196.845 491.885h19.15q-1.21 7.75-6.46 13.83-5.24 6.08-14.21 9.58-8.97 3.49-21.89 3.49-14.44 0-25.53-4.63-11.1-4.64-17.33-13.46-6.23-8.81-6.23-21.28 0-12.46 6.08-21.35t16.95-13.61q10.86-4.71 25.46-4.71 14.89 0 24.77 4.71 9.88 4.72 14.67 14.22 4.79 9.5 4.03 24.24h-72.05q.76 5.78 4.33 10.49 3.57 4.71 9.73 7.45 6.16 2.73 14.67 2.73 9.42 0 15.73-3.27 6.31-3.26 8.13-8.43m-24.93-37.09q-10.94 0-17.78 4.79-6.84 4.79-8.82 11.78h51.38q-.76-7.6-7.22-12.09-6.46-4.48-17.56-4.48"></path>
    <rect width="92.331" height="79.04" x="-46.166" y="-39.52" fill="none" rx="0" ry="0" transform="matrix(1 0 0 1 171.01 479.765)"></rect>
    <path fill="#FFACAC" d="M289.265 518.635q-10.03 0-17.18-3.57-7.14-3.57-11.55-9.43-4.41-5.85-6.54-12.76-2.12-6.92-2.12-13.61 0-8.36 2.05-15.5 2.05-7.15 6.46-12.54 4.41-5.4 11.55-8.44 7.14-3.04 17.33-3.04 11.7 0 20.75 4.94 9.04 4.94 14.28 13.76 5.25 8.81 5.25 20.82 0 11.71-5.32 20.6t-14.44 13.83q-9.12 4.94-20.52 4.94m-6.39-15.2q8.06 0 13.99-3.04t9.19-8.44q3.27-5.39 3.27-12.69 0-10.94-6.91-17.63-6.92-6.69-19.54-6.69-8.81 0-15.35 2.89-6.53 2.89-10.11 8.28-3.57 5.4-3.57 13.15 0 7.15 3.5 12.62 3.49 5.47 10.03 8.51 6.54 3.04 15.5 3.04m-29.03-92.42v86.49q0 4.87-.45 10.41-.46 5.55-.92 9.05h-18.39v-105.95Z"></path>
    <rect width="95.46" height="107.62" x="-47.73" y="-53.81" fill="none" rx="0" ry="0" transform="matrix(1 0 0 1 282.315 465.325)"></rect>
    <path fill="#FFACAC" d="M431.535 516.965h-19.76v-75.55h19.76Zm-18.7-36.33.16 5.17q-.31 2.13-1.52 6.15-1.22 4.03-3.73 8.59t-6.46 8.74q-3.95 4.18-9.73 6.84-5.77 2.66-13.68 2.66-6.23 0-12.23-1.52-6.01-1.52-10.87-5.09-4.86-3.57-7.75-9.65-2.89-6.08-2.89-15.35v-45.76h19.76v42.41q0 7.3 2.36 11.48 2.35 4.18 6.91 5.85 4.56 1.67 10.79 1.67 8.21 0 14.14-3.57t9.65-8.74q3.73-5.17 5.09-9.88"></path>
    <rect width="87.4" height="77.37" x="-43.7" y="-38.685" fill="none" rx="0" ry="0" transform="matrix(1 0 0 1 388.335 480.6)"></rect>
    <path fill="#FFACAC" d="M441.115 441.415h20.97l32.68 72.51-17.02 3.04Zm92.41 0-52.29 105.95h-20.52l22.35-41.65 29.33-64.3Z"></path>
    <rect width="92.41" height="105.95" x="-46.205" y="-52.975" fill="none" rx="0" ry="0" transform="matrix(1 0 0 1 487.82 494.89)"></rect>
    <path fill="#FFACAC" d="M223.017 185.149h12.891V139.05c0-27.094-22.047-49.14-49.148-49.14-27.102 0-49.142 22.046-49.142 49.14v46.098h12.885l-17.724 93.1h34.081v68.192h13.47v-68.19h13.468v68.192h13.472V278.25h33.474zm-36.257-81.77c19.673 0 35.676 16.009 35.676 35.672v45.77h-71.353v-45.77c0-19.667 16.003-35.672 35.677-35.672"></path>
    <path fill="#FFACAC" d="M138.738 92.274c4.234 0 10.385-.694 15.62-3.958a18.27 18.27 0 0 0 7.042-7.964 41.186 41.186 0 0 0 24.854 8.343c22.901 0 41.53-18.632 41.53-41.525.003-22.9-18.625-41.532-41.526-41.532-22.901 0-41.53 18.631-41.53 41.532 0 2.622.27 5.183.744 7.67h-.061c-12.906 0-19.742 13.881-23.417 21.34-.625 1.263-1.134 2.335-1.57 3.049l-3.648 5.897 6.004 3.47c3.978 2.301 9.94 3.678 15.958 3.678q-.004 0 0 0m47.52-17.051a27.901 27.901 0 0 1-14.832-4.279c14.842-8.278 25.797-23.488 32.682-45.418a28.036 28.036 0 0 1 10.21 21.64c0 15.473-12.587 28.057-28.06 28.057m0-56.117q2.889.003 5.62.57c-3.34 11.72-11.119 32.493-30.137 41.099a27.83 27.83 0 0 1-3.545-13.605c.004-15.473 12.588-28.064 28.062-28.064m-40.731 49.209c1.12.027 4.064.116 4.132 3.92 0 2.226-.707 3.572-2.435 4.654-1.95 1.216-5.04 1.92-8.486 1.92h-.004q-1.516-.004-2.896-.157c2.46-4.645 6.059-10.337 9.689-10.337M409.28 220.81c-3.422-39.397-36.544-70.432-76.82-70.432h-6.735v70.432H256.08a7.7 7.7 0 0 0 2.168-5.354 7.721 7.721 0 1 0-7.725 7.728c1.814 0 3.46-.65 4.778-1.694v6.055c0 33.599 21.63 62.178 51.669 72.74-.642-.05-1.267-.19-1.92-.19-13.02 0-23.614 10.589-23.614 23.6 0 13.024 10.597 23.617 23.615 23.617 13.021 0 23.611-10.596 23.611-23.617 0-9.064-5.204-16.867-12.724-20.818 5.327 1.172 10.842 1.827 16.522 1.827a76.84 76.84 0 0 0 16.525-1.827c-7.52 3.955-12.725 11.754-12.725 20.818 0 13.024 10.597 23.617 23.615 23.617 13.018 0 23.611-10.596 23.611-23.617 0-13.011-10.596-23.6-23.61-23.6-.66 0-1.281.136-1.923.19 30.034-10.562 51.665-39.141 51.665-72.74v-6.735zM305.048 333.844c-5.602-.006-10.14-4.548-10.142-10.15.011-5.595 4.547-10.126 10.142-10.132a10.142 10.142 0 1 1 0 20.281m64.974-10.148c-.004 5.6-4.541 10.141-10.142 10.149-5.603-.006-10.143-4.547-10.146-10.15.01-5.596 4.549-10.128 10.146-10.132 5.597 0 10.136 4.535 10.142 10.133M269.12 234.279h126.676a61.467 61.467 0 0 1-.919 5.99c-.109.536-.273 1.051-.396 1.584-.341 1.458-.683 2.92-1.12 4.34-.229.735-.512 1.441-.768 2.172-.407 1.172-.806 2.357-1.288 3.5-.32.78-.693 1.527-1.048 2.285-.488 1.055-.97 2.114-1.51 3.142-.413.758-.86 1.499-1.294 2.243-.567.97-1.134 1.937-1.752 2.872-.488.741-1.004 1.445-1.52 2.165a71.713 71.713 0 0 1-1.973 2.643c-.557.694-1.14 1.363-1.725 2.043a66.425 66.425 0 0 1-2.196 2.407q-.928.967-1.902 1.885a64.885 64.885 0 0 1-7.096 5.857c-.728.515-1.455 1.034-2.206 1.52q-1.387.894-2.821 1.714c-.768.45-1.533.898-2.326 1.307a61.36 61.36 0 0 1-3.018 1.452c-.8.372-1.592.744-2.411 1.086-1.066.43-2.162.812-3.248 1.192-.816.28-1.612.584-2.445.83-1.158.348-2.35.628-3.538.908-.803.191-1.585.42-2.39.584-1.333.263-2.695.437-4.047.621-.697.086-1.377.215-2.077.287a63.015 63.015 0 0 1-6.3.328c-32.843.003-59.968-24.99-63.342-56.957"></path>
</svg></svg>